<svg fill="#000000" xmlns="http://www.w3.org/2000/svg"  viewBox="0 0 100 100" width="100px" height="100px"><path d="M 49.898438 18 C 37.158073 18 25.876641 19.243359 19.082031 20.283203 C 14.36487 20.964144 10.548722 24.599621 9.6523438 29.355469 A 1.0001 1.0001 0 0 0 9.6503906 29.371094 C 8.8233449 34.17663 8 41.257174 8 50 C 8 58.742826 8.8233481 65.823365 9.6503906 70.628906 A 1.0001 1.0001 0 0 0 9.6523438 70.644531 C 10.548511 75.399255 14.363651 79.034439 19.078125 79.716797 C 26.070145 80.755738 37.358165 82 49.898438 82 C 62.637808 82 73.920219 80.756643 80.714844 79.716797 L 80.722656 79.714844 C 85.436065 79.030898 89.246715 75.397642 90.142578 70.644531 A 1.0001 1.0001 0 0 0 90.146484 70.628906 C 90.973545 65.823417 91.794823 58.753538 92 50.023438 A 1.0001 1.0001 0 0 0 92 50 C 92 41.241505 90.968813 34.149247 90.146484 29.371094 A 1.0001 1.0001 0 0 0 90.142578 29.355469 C 89.246405 24.60075 85.433224 20.965561 80.71875 20.283203 L 80.714844 20.283203 C 73.725472 19.244768 62.640783 18 49.898438 18 z M 49.898438 20 C 62.512237 20 73.509018 21.234245 80.423828 22.261719 A 1.0001 1.0001 0 0 0 80.427734 22.263672 C 84.296856 22.822325 87.433399 25.796791 88.175781 29.716797 C 88.988852 34.44214 89.998982 41.396685 90 49.988281 C 89.796756 58.60838 88.982026 65.585166 88.173828 70.283203 C 87.431192 74.203027 84.29769 77.177685 80.427734 77.736328 A 1.0001 1.0001 0 0 0 80.419922 77.738281 C 73.717882 78.764151 62.511232 80 49.898438 80 C 37.490709 80 26.283077 78.765335 19.371094 77.738281 A 1.0001 1.0001 0 0 0 19.367188 77.736328 C 15.495395 77.177338 12.358734 74.199397 11.619141 70.275391 C 10.810905 65.575077 10 58.609419 10 50 C 10 41.390581 10.810905 34.424923 11.619141 29.724609 C 12.358762 25.800457 15.494349 22.822731 19.367188 22.263672 A 1.0001 1.0001 0 0 0 19.376953 22.261719 C 26.078967 21.2358 37.284636 20 49.898438 20 z M 49.912109 24.5 C 48.927394 24.5 47.955028 24.507397 46.992188 24.523438 A 0.50006102 0.50006102 0 1 0 47.007812 25.523438 C 47.964977 25.507482 48.932825 25.5 49.912109 25.5 C 50.275194 25.5 50.637975 25.501906 50.998047 25.503906 A 0.50005 0.50005 0 1 0 51.001953 24.503906 C 50.640031 24.501907 50.277025 24.5 49.912109 24.5 z M 54.964844 24.572266 A 0.50011538 0.50011538 0 0 0 54.986328 25.572266 C 63.629996 25.815609 71.058203 26.630212 76.027344 27.328125 L 76.029297 27.328125 C 79.493669 27.800625 82.280569 30.314513 82.9375 33.59375 C 83.63279 37.412342 84.49946 43.040596 84.5 49.994141 C 84.325392 56.964683 83.630248 62.605995 82.9375 66.410156 C 82.280201 69.68741 79.492392 72.199549 76.029297 72.671875 L 76.027344 72.671875 L 76.025391 72.671875 C 75.093703 72.806397 74.061949 72.945417 72.939453 73.083984 A 0.50074447 0.50074447 0 1 0 73.060547 74.078125 C 74.188657 73.938865 75.22666 73.797433 76.164062 73.662109 C 80.030147 73.13482 83.178281 70.316484 83.919922 66.597656 L 83.919922 66.59375 L 83.921875 66.589844 C 84.624915 62.729171 85.324338 57.038186 85.5 50.011719 L 85.5 50.005859 L 85.5 50 C 85.5 42.958429 84.622272 37.256321 83.921875 33.410156 L 83.919922 33.40625 L 83.919922 33.402344 C 83.177427 29.684309 80.031239 26.865847 76.166016 26.337891 L 76.164062 26.337891 C 71.165256 25.635853 63.703092 24.816897 55.013672 24.572266 A 0.50005 0.50005 0 0 0 54.964844 24.572266 z M 43.015625 24.630859 A 0.50005 0.50005 0 0 0 42.980469 24.632812 C 40.149027 24.739093 37.457228 24.903114 34.960938 25.099609 A 0.50005 0.50005 0 1 0 35.039062 26.095703 C 37.522773 25.900198 40.202973 25.73658 43.019531 25.630859 A 0.50005 0.50005 0 0 0 43.015625 24.630859 z M 28 25.775391 A 0.50062726 0.50062726 0 0 0 27.978516 25.777344 A 0.50005 0.50005 0 0 0 27.943359 25.78125 C 26.350798 25.966781 24.914855 26.156218 23.658203 26.337891 C 19.793862 26.866511 16.647647 29.684737 15.90625 33.402344 L 15.90625 33.40625 L 15.904297 33.410156 C 15.200282 37.270949 14.5 42.966762 14.5 50 C 14.5 57.033238 15.201254 62.728205 15.904297 66.587891 L 15.904297 66.591797 L 15.90625 66.597656 C 16.648792 70.31568 19.792979 73.134153 23.658203 73.662109 C 29.064464 74.421534 37.492676 75.316167 46.992188 75.474609 A 0.50006102 0.50006102 0 1 0 47.007812 74.474609 C 37.561281 74.317017 29.168614 73.424497 23.796875 72.669922 L 23.794922 72.669922 C 20.329661 72.1973 17.542725 69.682815 16.886719 66.402344 C 16.886719 66.402344 16.886719 66.400391 16.886719 66.400391 C 16.194292 62.596221 15.5 56.961874 15.5 50 C 15.5 43.037174 16.193175 37.402801 16.886719 33.597656 L 16.888672 33.59375 C 16.888861 33.59275 16.888482 33.590844 16.888672 33.589844 C 17.545971 30.31259 20.33378 27.800451 23.796875 27.328125 L 23.798828 27.328125 L 23.800781 27.328125 C 25.04813 27.147797 26.475155 26.959859 28.058594 26.775391 A 0.50062726 0.50062726 0 0 0 28 25.775391 z M 49.982422 35 A 1.0001 1.0001 0 0 0 49.626953 35.072266 C 42.632919 37.879681 35.618996 40.708009 28.626953 43.515625 A 1.0001 1.0001 0 0 0 28.546875 45.335938 C 31.687289 46.93317 34.844228 48.510861 38 50.087891 L 38 64 A 1.0001 1.0001 0 0 0 39 65 L 61 65 A 1.0001 1.0001 0 0 0 62 64 L 62 50.085938 C 63.995334 49.080783 65.998583 48.079318 68 47.072266 L 68 51 L 68 58 A 1.0001 1.0001 0 1 0 70 58 L 70 51 L 70 47 L 70 46.066406 C 70.482552 45.825868 70.964284 45.589316 71.460938 45.332031 A 1.0001 1.0001 0 0 0 71.373047 43.515625 C 64.381081 40.70904 57.367004 37.88065 50.373047 35.072266 A 1.0001 1.0001 0 0 0 49.982422 35 z M 50 37.078125 C 56.184345 39.561802 62.383733 42.058709 68.572266 44.544922 C 68.527126 44.568062 68.484606 44.587938 68.439453 44.611328 C 65.654695 46.021088 62.843902 47.415028 60.048828 48.830078 C 56.694356 50.505876 53.339758 52.184721 50 53.880859 C 46.658945 52.184062 43.303038 50.504576 39.947266 48.828125 C 37.100204 47.405812 34.260911 45.977379 31.427734 44.544922 C 37.616199 42.058025 43.815723 39.560922 50 37.078125 z M 40 51.09375 C 43.18984 52.687449 46.379396 54.279626 49.546875 55.890625 A 1.0001 1.0001 0 0 0 50.453125 55.890625 C 53.620604 54.279626 56.81016 52.687449 60 51.09375 L 60 63 L 40 63 L 40 51.09375 z M 65.992188 73.804688 A 0.50005 0.50005 0 0 0 65.957031 73.808594 C 64.075813 73.968188 62.07325 74.110902 59.972656 74.224609 A 0.50005 0.50005 0 1 0 60.027344 75.222656 C 62.13875 75.108364 64.152187 74.965093 66.042969 74.804688 A 0.50064426 0.50064426 0 0 0 65.992188 73.804688 z M 55.982422 74.396484 C 54.04357 74.461312 52.044143 74.499003 50 74.5 A 0.50005 0.50005 0 1 0 50 75.5 C 52.055857 75.499 54.06843 75.46166 56.017578 75.396484 A 0.50030896 0.50030896 0 0 0 55.982422 74.396484 z"/></svg>